# xmcd
#
# Track frame offsets: 
#        150
#        17383
#        44353
#        61647
#        82425
#        96277
#        113383
#        126741
#        151163
#        186403
#        215409
#
# Disc length: 3415 seconds
#
# Revision: 0
# Processed by: cddbd v1.5.2PL0 Copyright (c) Steve Scherf et al.
# Submitted via: ExactAudioCopy v0.99pb5
#
DISCID=910d550b
DTITLE=Handkäs mit Orange - Live in de Tornhall
DYEAR=2011
DGENRE=Blues
TTITLE0=Mer speele de Bluus
TTITLE1=Glatze Bluus
TTITLE2=Klaa Geerer Klaa
TTITLE3=Es hot en laude Schloach gedo
TTITLE4=Vorm Door Steher Räg
TTITLE5=Lewwer, Duck Disch
TTITLE6=De Merfeller Dood
TTITLE7=Fernseh Bluus
TTITLE8=On The Ried Road
TTITLE9=Biibaa Bluus
TTITLE10=Die gute alte Zeit
EXTD=
EXTT0=
EXTT1=
EXTT2=
EXTT3=
EXTT4=
EXTT5=
EXTT6=
EXTT7=
EXTT8=
EXTT9=
EXTT10=
PLAYORDER=
